# xmcd
#
# Track frame offsets:
#	150
#	13767
#	26117
#	39315
#	52705
#	64370
#	76882
#	85855
#	96832
#	107325
#	118862
#	131477
#	144057
#	156890
#	168010
#
# Disc length: 2340 seconds
#
# Revision: 3
# Processed by: cddbd v1.4PL0 Copyright (c) Steve Scherf et al.
# Submitted via: audiograbber 1.81.03
#
DISCID=b009220f
DTITLE=Eddie Taylor - Bad Boy
DYEAR=1996
DGENRE=Blues
TTITLE0=Bad Boy
TTITLE1=E.T. Blues
TTITLE2=Ride 'Em On Down
TTITLE3=Big Town Playboy
TTITLE4=You'll Always Have A Home
TTITLE5=Don't Knock At My Door
TTITLE6=I'm Gonna Love You
TTITLE7=Lookin' For Trouble
TTITLE8=Find My Baby
TTITLE9=Stroll Out West
TTITLE10=I'm Sitting Here
TTITLE11=Do You Want Me To Cry
TTITLE12=Train Fare
TTITLE13=Leave This Neighborhood
TTITLE14=Somethin' For Nothin'
EXTD=Charly Blues Masterworks Vol. 35\n
EXTT0=
EXTT1=
EXTT2=
EXTT3=
EXTT4=
EXTT5=
EXTT6=
EXTT7=
EXTT8=
EXTT9=
EXTT10=
EXTT11=
EXTT12=
EXTT13=
EXTT14=
PLAYORDER=
